<mxfile host="app.diagrams.net" modified="2022-03-14T11:41:40.258Z" agent="5.0 (Windows NT 10.0; Win64; x64) AppleWebKit/537.36 (KHTML, like Gecko) Chrome/99.0.4844.51 Safari/537.36" etag="bt_g9VVSfVDXBIeNZxc9" version="17.1.2" type="github">
  <diagram id="jmIH7N42caOvKsFyoirR" name="Page-1">
    <mxGraphModel dx="1422" dy="762" grid="1" gridSize="10" guides="1" tooltips="1" connect="1" arrows="1" fold="1" page="1" pageScale="1" pageWidth="827" pageHeight="1169" math="0" shadow="0">
      <root>
        <mxCell id="0" />
        <mxCell id="1" parent="0" />
        <mxCell id="muXD6YrY-UIbCJYSaRgn-1" value="&lt;&lt;component&gt;&gt;&#xa;AuthenticationBusiness" style="shape=module;align=left;spacingLeft=20;align=center;verticalAlign=top;" vertex="1" parent="1">
          <mxGeometry x="30" y="40" width="730" height="370" as="geometry" />
        </mxCell>
        <mxCell id="muXD6YrY-UIbCJYSaRgn-2" value="&lt;&lt;component&gt;&gt;&#xa;AuthenticationService" style="shape=module;align=left;spacingLeft=20;align=center;verticalAlign=top;" vertex="1" parent="1">
          <mxGeometry x="70" y="90" width="280" height="280" as="geometry" />
        </mxCell>
        <mxCell id="muXD6YrY-UIbCJYSaRgn-3" value="&lt;&lt;component&gt;&gt;&#xa;AuthenticationDTOs" style="shape=module;align=left;spacingLeft=20;align=center;verticalAlign=top;" vertex="1" parent="1">
          <mxGeometry x="450" y="90" width="270" height="280" as="geometry" />
        </mxCell>
        <mxCell id="muXD6YrY-UIbCJYSaRgn-4" value="&amp;lt;&amp;lt;DTO&amp;gt;&amp;gt;&lt;br&gt;Usuario" style="html=1;" vertex="1" parent="1">
          <mxGeometry x="530" y="150" width="110" height="50" as="geometry" />
        </mxCell>
        <mxCell id="muXD6YrY-UIbCJYSaRgn-6" value="&amp;lt;&amp;lt;Interface&amp;gt;&amp;gt;&lt;br&gt;UsuarioService" style="html=1;" vertex="1" parent="1">
          <mxGeometry x="167.5" y="150" width="110" height="50" as="geometry" />
        </mxCell>
        <mxCell id="muXD6YrY-UIbCJYSaRgn-7" value="&amp;lt;&amp;lt;Implementation&amp;gt;&amp;gt;&lt;br&gt;UsuarioServiceImpl" style="html=1;" vertex="1" parent="1">
          <mxGeometry x="155" y="250" width="135" height="50" as="geometry" />
        </mxCell>
        <mxCell id="muXD6YrY-UIbCJYSaRgn-9" value="" style="endArrow=classic;html=1;rounded=0;entryX=0;entryY=0.5;entryDx=0;entryDy=0;dashed=1;exitX=1;exitY=0.5;exitDx=0;exitDy=0;" edge="1" parent="1" source="muXD6YrY-UIbCJYSaRgn-7" target="muXD6YrY-UIbCJYSaRgn-4">
          <mxGeometry width="50" height="50" relative="1" as="geometry">
            <mxPoint x="410" y="20" as="sourcePoint" />
            <mxPoint x="440" y="240" as="targetPoint" />
          </mxGeometry>
        </mxCell>
        <mxCell id="muXD6YrY-UIbCJYSaRgn-10" value="&amp;lt;&amp;lt;use&amp;gt;&amp;gt;" style="edgeLabel;html=1;align=center;verticalAlign=middle;resizable=0;points=[];" vertex="1" connectable="0" parent="muXD6YrY-UIbCJYSaRgn-9">
          <mxGeometry x="0.1623" y="-1" relative="1" as="geometry">
            <mxPoint x="-19" y="-16" as="offset" />
          </mxGeometry>
        </mxCell>
        <mxCell id="muXD6YrY-UIbCJYSaRgn-15" value="" style="endArrow=block;html=1;rounded=0;entryX=0.5;entryY=1;entryDx=0;entryDy=0;dashed=1;exitX=0.5;exitY=0;exitDx=0;exitDy=0;endFill=0;" edge="1" parent="1" source="muXD6YrY-UIbCJYSaRgn-7" target="muXD6YrY-UIbCJYSaRgn-6">
          <mxGeometry width="50" height="50" relative="1" as="geometry">
            <mxPoint x="300" y="285" as="sourcePoint" />
            <mxPoint x="540" y="185" as="targetPoint" />
          </mxGeometry>
        </mxCell>
      </root>
    </mxGraphModel>
  </diagram>
</mxfile>
